<svg width="215" height="149" viewBox="0 0 215 149" fill="none" xmlns="http://www.w3.org/2000/svg">
<g clip-path="url(#clip0)">
<path d="M165.857 1.25952V117.442C159.296 103.246 148.786 91.2079 135.565 82.7456C135.425 82.6552 135.284 82.5647 135.142 82.4775C121.985 74.1631 106.707 69.7589 91.1115 69.7845H4.04941V1.25952H165.857Z" fill="#F9743B"/>
<path d="M162 128V121.703C148.213 93.5545 117.823 74 82.5465 74H-10V128H162Z" fill="#02B4FF"/>
<path d="M18.6928 14.2019H13.8886V9.4314H18.6928V14.2019ZM14.6595 13.4366H17.9219V10.1969H14.6595V13.4366Z" fill="#F2F2F2"/>
<path d="M117.854 114.686H8.3519V93.7432H117.854V114.686ZM8.68934 114.351H117.517V94.0783H8.68934V114.351Z" fill="#F2F2F2"/>
<path opacity="0.1" d="M20.6688 102.036H11.8951V110.749H20.6688V102.036Z" fill="black"/>
<path d="M109.418 97.6804H37.3726V99.8585H109.418V97.6804Z" fill="#F2F2F2"/>
<path d="M109.418 103.209H37.3726V105.387H109.418V103.209Z" fill="#F2F2F2"/>
<path d="M109.418 108.738H37.3726V110.916H109.418V108.738Z" fill="#F2F2F2"/>
<path d="M25.2244 110.916H11.7264V97.5129H25.2244V110.916ZM12.0638 110.581H24.8869V97.848H12.0638V110.581Z" fill="#F2F2F2"/>
<path d="M132.365 111.419C130.93 111.419 129.527 110.996 128.334 110.205C127.141 109.413 126.211 108.288 125.662 106.972C125.113 105.655 124.969 104.207 125.249 102.809C125.529 101.412 126.22 100.128 127.235 99.1204C128.249 98.1128 129.542 97.4267 130.949 97.1487C132.357 96.8707 133.815 97.0134 135.141 97.5587C136.467 98.1039 137.6 99.0273 138.397 100.212C139.194 101.397 139.62 102.79 139.62 104.215C139.618 106.125 138.853 107.956 137.493 109.306C136.132 110.657 134.288 111.417 132.365 111.419ZM132.365 97.3453C130.997 97.3453 129.659 97.7482 128.522 98.503C127.384 99.2578 126.497 100.331 125.974 101.586C125.45 102.841 125.313 104.222 125.58 105.555C125.847 106.887 126.506 108.111 127.473 109.072C128.441 110.033 129.673 110.687 131.015 110.952C132.357 111.217 133.748 111.081 135.012 110.561C136.276 110.041 137.357 109.161 138.117 108.031C138.877 106.901 139.282 105.573 139.282 104.215C139.28 102.393 138.551 100.647 137.254 99.3596C135.957 98.0718 134.199 97.3474 132.365 97.3453V97.3453Z" fill="#F2F2F2"/>
<path d="M137.04 100.144L136.801 99.9075L132.365 104.313L127.929 99.9075L127.69 100.144L132.126 104.55L128.28 108.368L128.519 108.605L132.365 104.787L136.211 108.605L136.449 108.368L132.603 104.55L137.04 100.144Z" fill="#F2F2F2"/>
<path d="M130.49 4.28516L28.0151 21.5019L36.2421 69.7844H36.583L28.4032 21.7749L130.214 4.67219L143.237 81.1169L135.142 82.4774C135.284 82.5645 135.425 82.655 135.566 82.7455L143.627 81.3917L130.49 4.28516Z" stroke="#F2F2F2" stroke-width="2" stroke-miterlimit="10"/>
<path d="M84.1938 49.5349C87.584 59.6663 86.3933 69.1791 86.3933 69.1791C86.3933 69.1791 79.7061 62.2656 76.316 52.1342C72.9258 42.0027 74.1164 32.49 74.1164 32.49C74.1164 32.49 80.8036 39.4035 84.1938 49.5349Z" fill="#070E34"/>
<path d="M88.5928 49.5349C85.2027 59.6663 86.3933 69.1791 86.3933 69.1791C86.3933 69.1791 93.0805 62.2656 96.4706 52.1342C99.8608 42.0027 98.6702 32.49 98.6702 32.49C98.6702 32.49 91.983 39.4035 88.5928 49.5349Z" fill="#070E34"/>
<path d="M89.9583 49.6443C90.1855 60.318 86.22 69.0578 86.22 69.0578C86.22 69.0578 81.8861 60.4922 81.6588 49.8186C81.4316 39.1449 85.3971 30.405 85.3971 30.405C85.3971 30.405 89.731 38.9706 89.9583 49.6443Z" fill="#F2F2F2"/>
<path d="M85.8085 41.2561C86.3897 41.2561 86.8608 40.7883 86.8608 40.2112C86.8608 39.6341 86.3897 39.1663 85.8085 39.1663C85.2274 39.1663 84.7563 39.6341 84.7563 40.2112C84.7563 40.7883 85.2274 41.2561 85.8085 41.2561Z" fill="#070E34"/>
<path d="M83.7625 49.151C84.0853 49.151 84.3471 48.8911 84.3471 48.5705C84.3471 48.2499 84.0853 47.99 83.7625 47.99C83.4396 47.99 83.1779 48.2499 83.1779 48.5705C83.1779 48.8911 83.4396 49.151 83.7625 49.151Z" fill="#6C63FF"/>
<path d="M76.6303 43.4039C76.9532 43.4039 77.2149 43.144 77.2149 42.8234C77.2149 42.5028 76.9532 42.2429 76.6303 42.2429C76.3075 42.2429 76.0457 42.5028 76.0457 42.8234C76.0457 43.144 76.3075 43.4039 76.6303 43.4039Z" fill="#3F3D56"/>
<path d="M97.2667 37.7731C97.5895 37.7731 97.8513 37.5132 97.8513 37.1926C97.8513 36.872 97.5895 36.6121 97.2667 36.6121C96.9438 36.6121 96.6821 36.872 96.6821 37.1926C96.6821 37.5132 96.9438 37.7731 97.2667 37.7731Z" fill="#3F3D56"/>
<path d="M79.6703 48.8607C79.9931 48.8607 80.2549 48.6008 80.2549 48.2802C80.2549 47.9596 79.9931 47.6997 79.6703 47.6997C79.3474 47.6997 79.0857 47.9596 79.0857 48.2802C79.0857 48.6008 79.3474 48.8607 79.6703 48.8607Z" fill="#3F3D56"/>
<path d="M91.9468 45.4938C92.2697 45.4938 92.5314 45.2339 92.5314 44.9133C92.5314 44.5927 92.2697 44.3328 91.9468 44.3328C91.624 44.3328 91.3622 44.5927 91.3622 44.9133C91.3622 45.2339 91.624 45.4938 91.9468 45.4938Z" fill="#3F3D56"/>
<path d="M80.021 57.3942C80.3439 57.3942 80.6056 57.1343 80.6056 56.8137C80.6056 56.4931 80.3439 56.2332 80.021 56.2332C79.6981 56.2332 79.4364 56.4931 79.4364 56.8137C79.4364 57.1343 79.6981 57.3942 80.021 57.3942Z" fill="#3F3D56"/>
<path d="M92.5314 54.0853C92.8543 54.0853 93.116 53.8254 93.116 53.5048C93.116 53.1842 92.8543 52.9243 92.5314 52.9243C92.2085 52.9243 91.9468 53.1842 91.9468 53.5048C91.9468 53.8254 92.2085 54.0853 92.5314 54.0853Z" fill="#3F3D56"/>
<path d="M86.8608 54.6657C87.1837 54.6657 87.4454 54.4058 87.4454 54.0851C87.4454 53.7645 87.1837 53.5046 86.8608 53.5046C86.5379 53.5046 86.2762 53.7645 86.2762 54.0851C86.2762 54.4058 86.5379 54.6657 86.8608 54.6657Z" fill="#6C63FF"/>
<path d="M210.31 129.813C210.31 129.813 210.962 136.289 212.049 138.447C212.049 138.447 205.528 139.958 205.31 138.663C205.093 137.368 205.528 132.403 205.528 132.403L210.31 129.813Z" fill="#A0616A"/>
<path d="M177.704 133.051C177.704 133.051 178.356 139.527 179.443 141.685C179.443 141.685 172.921 143.196 172.704 141.901C172.487 140.606 173.139 133.699 173.139 133.699L177.704 133.051Z" fill="#A0616A"/>
<path d="M205.962 42.6093C205.962 42.6093 210.527 57.7189 207.701 60.525C204.875 63.3311 198.137 72.8285 198.137 72.8285L195.963 69.1591C195.963 69.1591 203.571 58.5823 202.702 56.208C201.832 53.8336 199.658 47.3581 199.658 47.3581C199.658 47.3581 203.354 41.7459 205.962 42.6093Z" fill="#A0616A"/>
<path d="M184.66 24.262C189.462 24.262 193.355 20.3964 193.355 15.6279C193.355 10.8595 189.462 6.9939 184.66 6.9939C179.857 6.9939 175.965 10.8595 175.965 15.6279C175.965 20.3964 179.857 24.262 184.66 24.262Z" fill="#A0616A"/>
<path d="M192.485 16.7073C192.485 16.7073 195.963 25.9889 197.919 26.8523C199.876 27.7157 203.354 31.8169 203.354 31.8169C203.354 31.8169 203.788 42.6094 201.397 42.6094C199.006 42.6094 185.746 27.284 185.746 27.284C185.746 27.284 186.399 24.2621 185.094 22.5353C183.79 20.8085 192.485 16.7073 192.485 16.7073Z" fill="#A0616A"/>
<path d="M195.746 59.2298V61.82C195.746 61.82 199.658 68.5114 199.876 80.5991L201.832 102.184C201.832 102.184 212.049 118.589 210.527 128.086L210.745 131.756L205.528 133.483L203.789 130.461C203.789 130.461 202.05 130.245 200.528 125.496L191.181 104.559L185.529 87.5063L182.051 109.739C182.051 109.739 183.573 130.245 179.66 130.892V134.13L172.487 134.346V131.324C172.487 131.324 170.095 132.188 170.313 128.518C170.53 124.849 170.313 108.876 170.313 108.876L169.009 81.4625C169.009 81.4625 166.12 68.6209 167.673 66.0839L176.182 51.8909L195.746 59.2298Z" fill="#070E34"/>
<path d="M210.745 138.016C210.745 138.016 212.918 137.152 213.353 138.231C213.788 139.311 216.831 145.139 213.353 145.57C209.875 146.002 207.701 145.57 207.701 145.57C207.701 145.57 204.875 145.139 203.789 145.355C202.702 145.57 198.354 144.923 198.789 141.685C199.224 138.447 202.05 138.879 202.05 138.879C202.05 138.879 204.875 137.152 204.875 136.505C204.875 135.857 205.962 137.584 205.962 137.584C205.962 137.584 206.832 139.095 210.745 138.016Z" fill="#070E34"/>
<path d="M178.138 141.253C178.138 141.253 180.312 140.39 180.747 141.469C181.182 142.549 184.225 148.377 180.747 148.808C177.269 149.24 175.095 148.808 175.095 148.808C175.095 148.808 172.269 148.377 171.182 148.592C170.095 148.808 165.748 148.161 166.183 144.923C166.617 141.685 169.443 142.117 169.443 142.117C169.443 142.117 172.269 140.39 172.269 139.742C172.269 139.095 173.356 140.822 173.356 140.822C173.356 140.822 174.226 142.333 178.138 141.253Z" fill="#070E34"/>
<path d="M199.006 38.5081C199.006 38.5081 206.397 36.8308 199.006 27.5245C199.006 27.5245 204.875 29.2265 205.528 33.7594C206.18 38.2923 206.397 43.9044 206.397 43.9044C206.397 43.9044 202.702 42.8251 200.745 47.7897C198.789 52.7543 195.963 55.3445 196.833 60.525L175.095 52.5385C175.095 52.5385 178.138 46.2788 176.617 43.4727C175.095 40.6666 177.051 35.4862 177.051 35.4862C177.051 35.4862 182.921 21.4559 188.355 27.068C193.789 32.6801 193.355 37.213 199.006 38.5081Z" fill="#F6FAFC"/>
<path d="M186.181 37.6447C186.181 37.6447 185.312 51.8909 182.921 54.4811C180.529 57.0714 170.965 67.8639 170.965 67.8639L170.53 70.4541L168.357 71.9651C168.357 71.9651 166.183 66.7847 168.574 64.6262L176.834 49.9483L178.79 36.1338L186.181 37.6447Z" fill="#A0616A"/>
<path d="M179.443 26.4205C179.443 26.4205 184.511 23.512 185.889 26.1534C187.268 28.7949 186.616 39.3716 186.616 39.3716L177.486 38.2923C177.486 38.2923 178.138 26.6364 179.443 26.4205Z" fill="#F6FAFC"/>
<path d="M174.691 15.1055C173.084 13.1931 174.421 13.1909 174.421 13.1909C174.532 13.8774 175.245 14.73 175.967 15.4401C176.479 15.939 177.021 16.4075 177.588 16.8431L177.436 16.3186L178.851 17.2425C179.319 21.4796 181.729 20.8839 181.729 20.8839C179.743 19.647 180.293 17.59 180.569 16.5604C180.842 15.5308 182.703 15.7488 182.812 18.7577C182.921 21.7667 184.977 22.5179 184.977 22.5179L185.373 24.2317L185.718 25.7254L186.659 24.0331L187.101 23.2388C190.057 23.5324 190.403 20.7738 190.403 20.7738C191.07 20.4616 191.714 20.1016 192.329 19.6967C196.948 16.6187 195.396 13.083 194.283 11.4598C194.067 11.1396 193.825 10.8378 193.559 10.5576C193.624 10.5705 193.689 10.5835 193.752 10.5942C202.615 12.2412 198.122 7.16005 198.122 7.16005L200.345 8.23283L204.515 8.74872L201.147 5.72464C203.56 5.59513 205.98 9.33152 206.054 9.44592C204.556 4.93678 201.626 5.39655 201.626 5.39655L202.51 5.144L200.967 4.44465L202.76 4.6907C202.76 4.6907 202.254 4.26548 201.469 3.54022C200.684 2.81496 196.972 2.54946 196.972 2.54946C200.756 1.08599 204.478 4.01077 204.478 4.01077C202.432 -0.593334 197.404 1.04066 194.913 2.21273L193.696 2.35304C193.722 2.26454 193.755 1.90191 193.735 0.626226C193.705 -1.40278 191.287 2.13287 191.168 2.30771C191.168 2.2818 191.042 2.14366 189.394 1.49179C187.472 0.729835 188.292 4.91519 188.316 5.02743V5.02958C188.316 5.02958 188.335 5.05764 188.175 5.03605C187.872 4.9972 186.936 4.78135 184.057 3.87478C181.571 3.09124 180.03 3.90068 179.156 4.75761C178.009 5.91273 176.646 6.83375 175.143 7.4687C174.658 7.66728 174.223 7.83133 173.941 7.91335C172.882 8.21554 172.328 8.94512 171.298 11.3303C170.285 13.6831 174.571 15.0688 174.691 15.1055Z" fill="#070E34"/>
<path d="M188.175 5.03598C189.194 6.47786 192.142 10.4646 194.283 11.4597C194.067 11.1395 193.825 10.8377 193.559 10.5575C193.624 10.5704 193.689 10.5834 193.752 10.5941L188.316 5.03166V5.02734L188.175 5.03598Z" fill="#D0CDE1"/>
</g>
<defs>
<clipPath id="clip0">
<rect width="215" height="149" fill="white"/>
</clipPath>
</defs>
</svg>
